<svg data-v-423bf9ae="" xmlns="http://www.w3.org/2000/svg" viewBox="0 0 138.91503299107782 60" class="font"><!----><!----><!----><g data-v-423bf9ae="" id="0e86959e-8093-45ec-bc9b-614a75e9a799" fill="#14A9A9" transform="matrix(6.1412482261657715,0,0,6.1412482261657715,-4.728758335113525,-28.126914978027344)"><path d="M0.77 14.35L4.21 14.35L4.21 13.68L3.15 13.68L3.15 9.87L4.76 9.87L6.51 13.08C6.97 13.93 7.32 14.35 8.44 14.35L9.39 14.35L9.39 13.68L9.28 13.68C8.58 13.68 8.12 13.37 7.74 12.68L6.09 9.69C7.52 9.41 8.27 8.47 8.27 7.17C8.27 5.45 7.22 4.58 5.46 4.58L0.77 4.58L0.77 5.25L1.83 5.25L1.83 13.68L0.77 13.68ZM3.15 5.31L5.33 5.31C6.31 5.31 6.89 5.99 6.89 6.89L6.89 7.56C6.89 8.46 6.31 9.14 5.33 9.14L3.15 9.14ZM13.65 14.35L16.60 14.35L16.60 13.68L15.54 13.68L15.54 6.02L15.60 6.02L21.32 14.35L22.33 14.35L22.33 5.25L23.39 5.25L23.39 4.58L20.44 4.58L20.44 5.25L21.50 5.25L21.50 12.29L21.45 12.29L16.14 4.58L13.65 4.58L13.65 5.25L14.71 5.25L14.71 13.68L13.65 13.68Z"></path></g><!----><!----></svg>